<svg viewBox="0 0 24 24" fill="currentColor" xmlns="http://www.w3.org/2000/svg">
  <!-- Fire/Cult gang - flame with ritual symbol -->
  <path d="M12 22c-4 0-7-2.5-7-7 0-3.5 2-6 4-8 0 2.5 2 4 3 4s2-1 2-3c0-1.5-.5-3-1-4 3 1 6 4.5 6 9 0 5-3 9-7 9z"/>
  <path d="M12 22c-2 0-3.5-1.5-3.5-4 0-2 1-3.5 2-5 0 1.5 1 2.5 1.5 2.5s1-.5 1-1.5c0-.75-.25-1.5-.5-2 1.5.5 3 2.25 3 4.5 0 3-1.5 5.5-3.5 5.5z" fill="none" stroke="currentColor" stroke-width="0.5"/>
  <circle cx="12" cy="17" r="1.5" fill="none" stroke="currentColor" stroke-width="1"/>
</svg>
